<mxfile host="app.diagrams.net" modified="2023-12-13T19:59:25.722Z" agent="Mozilla/5.0 (X11; Ubuntu; Linux x86_64; rv:109.0) Gecko/20100101 Firefox/119.0" etag="fVjs4fLKc6LhDKhXRzn9" version="22.1.8" type="google">
  <diagram id="R2lEEEUBdFMjLlhIrx00" name="Page-1">
    <mxGraphModel grid="1" page="1" gridSize="10" guides="1" tooltips="1" connect="1" arrows="1" fold="1" pageScale="1" pageWidth="850" pageHeight="1100" math="0" shadow="0" extFonts="Permanent Marker^https://fonts.googleapis.com/css?family=Permanent+Marker">
      <root>
        <mxCell id="0" />
        <mxCell id="1" parent="0" />
        <mxCell id="plB8owl6oJvt0cA6A79a-11" value="PersonExtRef" style="rounded=1;arcSize=10;whiteSpace=wrap;html=1;align=center;" vertex="1" parent="1">
          <mxGeometry x="700" y="480" width="100" height="40" as="geometry" />
        </mxCell>
        <mxCell id="plB8owl6oJvt0cA6A79a-13" value="Season" style="rounded=1;arcSize=10;whiteSpace=wrap;html=1;align=center;" vertex="1" parent="1">
          <mxGeometry x="470" y="510" width="100" height="40" as="geometry" />
        </mxCell>
        <mxCell id="plB8owl6oJvt0cA6A79a-15" value="LocationExtRef" style="rounded=1;arcSize=10;whiteSpace=wrap;html=1;align=center;" vertex="1" parent="1">
          <mxGeometry x="700" y="540" width="100" height="40" as="geometry" />
        </mxCell>
        <mxCell id="plB8owl6oJvt0cA6A79a-18" value="ListExtRef" style="rounded=1;arcSize=10;whiteSpace=wrap;html=1;align=center;" vertex="1" parent="1">
          <mxGeometry x="700" y="420" width="100" height="40" as="geometry" />
        </mxCell>
        <mxCell id="plB8owl6oJvt0cA6A79a-20" value="ProgramExtRef" style="rounded=1;arcSize=10;whiteSpace=wrap;html=1;align=center;" vertex="1" parent="1">
          <mxGeometry x="700" y="720" width="100" height="40" as="geometry" />
        </mxCell>
        <mxCell id="plB8owl6oJvt0cA6A79a-22" value="Trial" style="rounded=1;arcSize=10;whiteSpace=wrap;html=1;align=center;" vertex="1" parent="1">
          <mxGeometry x="230" y="720" width="100" height="40" as="geometry" />
        </mxCell>
        <mxCell id="plB8owl6oJvt0cA6A79a-23" value="TrialExtRef" style="rounded=1;arcSize=10;whiteSpace=wrap;html=1;align=center;" vertex="1" parent="1">
          <mxGeometry x="700" y="660" width="100" height="40" as="geometry" />
        </mxCell>
        <mxCell id="plB8owl6oJvt0cA6A79a-24" value="TrialPeople" style="rounded=1;arcSize=10;whiteSpace=wrap;html=1;align=center;" vertex="1" parent="1">
          <mxGeometry x="220" y="870" width="100" height="40" as="geometry" />
        </mxCell>
        <mxCell id="plB8owl6oJvt0cA6A79a-25" value="DatasetAuthorship" style="rounded=1;arcSize=10;whiteSpace=wrap;html=1;align=center;" vertex="1" parent="1">
          <mxGeometry x="380" y="720" width="100" height="40" as="geometry" />
        </mxCell>
        <mxCell id="plB8owl6oJvt0cA6A79a-26" value="Publications" style="rounded=1;arcSize=10;whiteSpace=wrap;html=1;align=center;" vertex="1" parent="1">
          <mxGeometry x="375" y="800" width="100" height="40" as="geometry" />
        </mxCell>
        <mxCell id="plB8owl6oJvt0cA6A79a-27" value="Study" style="rounded=1;arcSize=10;whiteSpace=wrap;html=1;align=center;" vertex="1" parent="1">
          <mxGeometry x="520" y="720" width="100" height="40" as="geometry" />
        </mxCell>
        <mxCell id="plB8owl6oJvt0cA6A79a-28" value="StudyPeople" style="rounded=1;arcSize=10;whiteSpace=wrap;html=1;align=center;" vertex="1" parent="1">
          <mxGeometry x="520" y="790" width="100" height="40" as="geometry" />
        </mxCell>
        <mxCell id="plB8owl6oJvt0cA6A79a-29" value="StudyEnvParams" style="rounded=1;arcSize=10;whiteSpace=wrap;html=1;align=center;" vertex="1" parent="1">
          <mxGeometry x="520" y="860" width="100" height="40" as="geometry" />
        </mxCell>
        <mxCell id="plB8owl6oJvt0cA6A79a-30" value="StudyExtRef" style="rounded=1;arcSize=10;whiteSpace=wrap;html=1;align=center;" vertex="1" parent="1">
          <mxGeometry x="700" y="600" width="100" height="40" as="geometry" />
        </mxCell>
        <mxCell id="plB8owl6oJvt0cA6A79a-50" value="Relationship" style="shape=rhombus;double=1;perimeter=rhombusPerimeter;whiteSpace=wrap;html=1;align=center;" vertex="1" parent="1">
          <mxGeometry x="750" y="-440" width="120" height="60" as="geometry" />
        </mxCell>
        <mxCell id="plB8owl6oJvt0cA6A79a-62" value="in_country" style="shape=rhombus;perimeter=rhombusPerimeter;whiteSpace=wrap;html=1;align=center;" vertex="1" parent="1">
          <mxGeometry x="-60" y="-640" width="120" height="60" as="geometry" />
        </mxCell>
        <mxCell id="plB8owl6oJvt0cA6A79a-63" value="has_address" style="shape=rhombus;perimeter=rhombusPerimeter;whiteSpace=wrap;html=1;align=center;" vertex="1" parent="1">
          <mxGeometry x="340" y="-630" width="120" height="60" as="geometry" />
        </mxCell>
        <mxCell id="plB8owl6oJvt0cA6A79a-72" value="" style="endArrow=none;html=1;rounded=0;dashed=1;dashPattern=1 2;" edge="1" parent="1" source="plB8owl6oJvt0cA6A79a-62" target="plB8owl6oJvt0cA6A79a-1">
          <mxGeometry relative="1" as="geometry">
            <mxPoint x="22.422530735979393" y="-650.7087346320103" as="sourcePoint" />
            <mxPoint x="252.58" y="-330" as="targetPoint" />
          </mxGeometry>
        </mxCell>
        <mxCell id="plB8owl6oJvt0cA6A79a-73" value="N" style="resizable=0;html=1;whiteSpace=wrap;align=right;verticalAlign=bottom;" connectable="0" vertex="1" parent="plB8owl6oJvt0cA6A79a-72">
          <mxGeometry x="1" relative="1" as="geometry">
            <mxPoint x="32" y="-20" as="offset" />
          </mxGeometry>
        </mxCell>
        <mxCell id="plB8owl6oJvt0cA6A79a-74" value="" style="endArrow=none;html=1;rounded=0;" edge="1" parent="1" source="plB8owl6oJvt0cA6A79a-62" target="plB8owl6oJvt0cA6A79a-60">
          <mxGeometry relative="1" as="geometry">
            <mxPoint x="340" y="-140" as="sourcePoint" />
            <mxPoint x="500" y="-140" as="targetPoint" />
          </mxGeometry>
        </mxCell>
        <mxCell id="plB8owl6oJvt0cA6A79a-75" value="1" style="resizable=0;html=1;whiteSpace=wrap;align=right;verticalAlign=bottom;" connectable="0" vertex="1" parent="plB8owl6oJvt0cA6A79a-74">
          <mxGeometry x="1" relative="1" as="geometry">
            <mxPoint x="-92" y="50" as="offset" />
          </mxGeometry>
        </mxCell>
        <mxCell id="plB8owl6oJvt0cA6A79a-76" value="" style="endArrow=none;html=1;rounded=0;" edge="1" parent="1" source="plB8owl6oJvt0cA6A79a-50" target="plB8owl6oJvt0cA6A79a-49">
          <mxGeometry relative="1" as="geometry">
            <mxPoint x="820" y="-410.5" as="sourcePoint" />
            <mxPoint x="970" y="-410.5" as="targetPoint" />
          </mxGeometry>
        </mxCell>
        <mxCell id="plB8owl6oJvt0cA6A79a-77" value="N" style="resizable=0;html=1;whiteSpace=wrap;align=right;verticalAlign=bottom;" connectable="0" vertex="1" parent="plB8owl6oJvt0cA6A79a-76">
          <mxGeometry x="1" relative="1" as="geometry">
            <mxPoint x="-40" as="offset" />
          </mxGeometry>
        </mxCell>
        <mxCell id="plB8owl6oJvt0cA6A79a-78" value="" style="endArrow=none;html=1;rounded=0;dashed=1;dashPattern=1 2;" edge="1" parent="1" source="plB8owl6oJvt0cA6A79a-7" target="plB8owl6oJvt0cA6A79a-50">
          <mxGeometry relative="1" as="geometry">
            <mxPoint x="340" y="-140" as="sourcePoint" />
            <mxPoint x="500" y="-140" as="targetPoint" />
          </mxGeometry>
        </mxCell>
        <mxCell id="plB8owl6oJvt0cA6A79a-79" value="1" style="resizable=0;html=1;whiteSpace=wrap;align=right;verticalAlign=bottom;" connectable="0" vertex="1" parent="plB8owl6oJvt0cA6A79a-78">
          <mxGeometry x="1" relative="1" as="geometry" />
        </mxCell>
        <mxCell id="plB8owl6oJvt0cA6A79a-93" value="" style="endArrow=none;html=1;rounded=0;" edge="1" parent="1" source="plB8owl6oJvt0cA6A79a-10" target="plB8owl6oJvt0cA6A79a-125">
          <mxGeometry relative="1" as="geometry">
            <mxPoint x="194" y="-553" as="sourcePoint" />
            <mxPoint x="140" y="-530" as="targetPoint" />
          </mxGeometry>
        </mxCell>
        <mxCell id="plB8owl6oJvt0cA6A79a-94" value="1" style="resizable=0;html=1;whiteSpace=wrap;align=right;verticalAlign=bottom;" connectable="0" vertex="1" parent="plB8owl6oJvt0cA6A79a-93">
          <mxGeometry x="1" relative="1" as="geometry">
            <mxPoint x="-42" y="49" as="offset" />
          </mxGeometry>
        </mxCell>
        <mxCell id="plB8owl6oJvt0cA6A79a-95" value="" style="endArrow=none;html=1;rounded=0;" edge="1" parent="1" source="plB8owl6oJvt0cA6A79a-7" target="plB8owl6oJvt0cA6A79a-63">
          <mxGeometry relative="1" as="geometry">
            <mxPoint x="403" y="-586" as="sourcePoint" />
            <mxPoint x="298" y="-650" as="targetPoint" />
          </mxGeometry>
        </mxCell>
        <mxCell id="plB8owl6oJvt0cA6A79a-96" value="1" style="resizable=0;html=1;whiteSpace=wrap;align=right;verticalAlign=bottom;" connectable="0" vertex="1" parent="plB8owl6oJvt0cA6A79a-95">
          <mxGeometry x="1" relative="1" as="geometry">
            <mxPoint x="32" y="20" as="offset" />
          </mxGeometry>
        </mxCell>
        <mxCell id="plB8owl6oJvt0cA6A79a-111" value="" style="endArrow=none;html=1;rounded=0;dashed=1;dashPattern=1 2;" edge="1" parent="1" source="plB8owl6oJvt0cA6A79a-60" target="plB8owl6oJvt0cA6A79a-63">
          <mxGeometry relative="1" as="geometry">
            <mxPoint x="340" y="-50" as="sourcePoint" />
            <mxPoint x="350" y="-520" as="targetPoint" />
          </mxGeometry>
        </mxCell>
        <mxCell id="plB8owl6oJvt0cA6A79a-112" value="1" style="resizable=0;html=1;whiteSpace=wrap;align=right;verticalAlign=bottom;" connectable="0" vertex="1" parent="plB8owl6oJvt0cA6A79a-111">
          <mxGeometry x="1" relative="1" as="geometry">
            <mxPoint x="-50" y="-50" as="offset" />
          </mxGeometry>
        </mxCell>
        <mxCell id="plB8owl6oJvt0cA6A79a-124" value="part_of" style="shape=rhombus;perimeter=rhombusPerimeter;whiteSpace=wrap;html=1;align=center;" vertex="1" parent="1">
          <mxGeometry x="280" y="-370" width="120" height="60" as="geometry" />
        </mxCell>
        <mxCell id="plB8owl6oJvt0cA6A79a-125" value="has_address" style="shape=rhombus;perimeter=rhombusPerimeter;whiteSpace=wrap;html=1;align=center;" vertex="1" parent="1">
          <mxGeometry x="70" y="-540" width="120" height="60" as="geometry" />
        </mxCell>
        <mxCell id="plB8owl6oJvt0cA6A79a-126" value="" style="endArrow=none;html=1;rounded=0;" edge="1" parent="1" source="plB8owl6oJvt0cA6A79a-125" target="plB8owl6oJvt0cA6A79a-60">
          <mxGeometry relative="1" as="geometry">
            <mxPoint x="107" y="-440" as="sourcePoint" />
            <mxPoint x="182" y="-529" as="targetPoint" />
          </mxGeometry>
        </mxCell>
        <mxCell id="plB8owl6oJvt0cA6A79a-127" value="1" style="resizable=0;html=1;whiteSpace=wrap;align=right;verticalAlign=bottom;" connectable="0" vertex="1" parent="plB8owl6oJvt0cA6A79a-126">
          <mxGeometry x="1" relative="1" as="geometry">
            <mxPoint x="-46" y="100" as="offset" />
          </mxGeometry>
        </mxCell>
        <mxCell id="plB8owl6oJvt0cA6A79a-130" value="" style="endArrow=none;html=1;rounded=0;" edge="1" parent="1" source="plB8owl6oJvt0cA6A79a-10" target="plB8owl6oJvt0cA6A79a-124">
          <mxGeometry relative="1" as="geometry">
            <mxPoint x="160" y="-80" as="sourcePoint" />
            <mxPoint x="320" y="-80" as="targetPoint" />
          </mxGeometry>
        </mxCell>
        <mxCell id="plB8owl6oJvt0cA6A79a-131" value="N" style="resizable=0;html=1;whiteSpace=wrap;align=right;verticalAlign=bottom;" connectable="0" vertex="1" parent="plB8owl6oJvt0cA6A79a-130">
          <mxGeometry x="1" relative="1" as="geometry">
            <mxPoint x="-131" y="30" as="offset" />
          </mxGeometry>
        </mxCell>
        <mxCell id="plB8owl6oJvt0cA6A79a-182" value="has_coordinates" style="shape=rhombus;perimeter=rhombusPerimeter;whiteSpace=wrap;html=1;align=center;" vertex="1" parent="1">
          <mxGeometry x="-1080" y="270" width="120" height="60" as="geometry" />
        </mxCell>
        <mxCell id="plB8owl6oJvt0cA6A79a-183" value="" style="endArrow=none;html=1;rounded=0;" edge="1" parent="1" source="plB8owl6oJvt0cA6A79a-182" target="plB8owl6oJvt0cA6A79a-14">
          <mxGeometry relative="1" as="geometry">
            <mxPoint x="-740" y="100" as="sourcePoint" />
            <mxPoint x="-580" y="100" as="targetPoint" />
          </mxGeometry>
        </mxCell>
        <mxCell id="plB8owl6oJvt0cA6A79a-184" value="1" style="resizable=0;html=1;whiteSpace=wrap;align=right;verticalAlign=bottom;" connectable="0" vertex="1" parent="plB8owl6oJvt0cA6A79a-183">
          <mxGeometry x="1" relative="1" as="geometry">
            <mxPoint x="-20" y="-10" as="offset" />
          </mxGeometry>
        </mxCell>
        <mxCell id="plB8owl6oJvt0cA6A79a-185" value="" style="endArrow=none;html=1;rounded=0;" edge="1" parent="1" source="plB8owl6oJvt0cA6A79a-156" target="plB8owl6oJvt0cA6A79a-182">
          <mxGeometry relative="1" as="geometry">
            <mxPoint x="-757" y="353" as="sourcePoint" />
            <mxPoint x="-590" y="420" as="targetPoint" />
          </mxGeometry>
        </mxCell>
        <mxCell id="plB8owl6oJvt0cA6A79a-186" value="1" style="resizable=0;html=1;whiteSpace=wrap;align=right;verticalAlign=bottom;" connectable="0" vertex="1" parent="plB8owl6oJvt0cA6A79a-185">
          <mxGeometry x="1" relative="1" as="geometry">
            <mxPoint x="-20" y="-10" as="offset" />
          </mxGeometry>
        </mxCell>
        <mxCell id="plB8owl6oJvt0cA6A79a-187" value="Coordinates-MongoDB" style="swimlane;" vertex="1" parent="1">
          <mxGeometry x="-1240" y="-160" width="350" height="290" as="geometry" />
        </mxCell>
        <mxCell id="plB8owl6oJvt0cA6A79a-156" value="Coordinates" style="rounded=1;arcSize=10;whiteSpace=wrap;html=1;align=center;" vertex="1" parent="plB8owl6oJvt0cA6A79a-187">
          <mxGeometry x="125" y="140" width="100" height="40" as="geometry" />
        </mxCell>
        <mxCell id="plB8owl6oJvt0cA6A79a-157" value="coordinateDbId" style="ellipse;whiteSpace=wrap;html=1;align=center;fontStyle=4;" vertex="1" parent="plB8owl6oJvt0cA6A79a-187">
          <mxGeometry x="10" y="230" width="100" height="40" as="geometry" />
        </mxCell>
        <mxCell id="plB8owl6oJvt0cA6A79a-177" value="" style="endArrow=none;html=1;rounded=0;" edge="1" parent="plB8owl6oJvt0cA6A79a-187" source="plB8owl6oJvt0cA6A79a-156" target="plB8owl6oJvt0cA6A79a-157">
          <mxGeometry relative="1" as="geometry">
            <mxPoint x="-292" y="530" as="sourcePoint" />
            <mxPoint x="-198" y="760" as="targetPoint" />
          </mxGeometry>
        </mxCell>
        <mxCell id="plB8owl6oJvt0cA6A79a-152" value="longitude" style="ellipse;whiteSpace=wrap;html=1;align=center;" vertex="1" parent="plB8owl6oJvt0cA6A79a-187">
          <mxGeometry y="140" width="100" height="40" as="geometry" />
        </mxCell>
        <mxCell id="plB8owl6oJvt0cA6A79a-178" value="" style="endArrow=none;html=1;rounded=0;" edge="1" parent="plB8owl6oJvt0cA6A79a-187" source="plB8owl6oJvt0cA6A79a-156" target="plB8owl6oJvt0cA6A79a-152">
          <mxGeometry relative="1" as="geometry">
            <mxPoint x="140" y="450" as="sourcePoint" />
            <mxPoint x="100" y="450" as="targetPoint" />
          </mxGeometry>
        </mxCell>
        <mxCell id="plB8owl6oJvt0cA6A79a-158" value="latitude" style="ellipse;whiteSpace=wrap;html=1;align=center;" vertex="1" parent="plB8owl6oJvt0cA6A79a-187">
          <mxGeometry x="25" y="80" width="100" height="40" as="geometry" />
        </mxCell>
        <mxCell id="plB8owl6oJvt0cA6A79a-179" value="" style="endArrow=none;html=1;rounded=0;" edge="1" parent="plB8owl6oJvt0cA6A79a-187" source="plB8owl6oJvt0cA6A79a-156" target="plB8owl6oJvt0cA6A79a-158">
          <mxGeometry relative="1" as="geometry">
            <mxPoint x="150" y="460" as="sourcePoint" />
            <mxPoint x="110" y="460" as="targetPoint" />
          </mxGeometry>
        </mxCell>
        <mxCell id="plB8owl6oJvt0cA6A79a-159" value="elevation" style="ellipse;whiteSpace=wrap;html=1;align=center;" vertex="1" parent="plB8owl6oJvt0cA6A79a-187">
          <mxGeometry x="125" y="50" width="100" height="40" as="geometry" />
        </mxCell>
        <mxCell id="plB8owl6oJvt0cA6A79a-180" value="" style="endArrow=none;html=1;rounded=0;" edge="1" parent="plB8owl6oJvt0cA6A79a-187" source="plB8owl6oJvt0cA6A79a-156" target="plB8owl6oJvt0cA6A79a-159">
          <mxGeometry relative="1" as="geometry">
            <mxPoint x="210" y="470" as="sourcePoint" />
            <mxPoint x="170" y="470" as="targetPoint" />
          </mxGeometry>
        </mxCell>
        <mxCell id="plB8owl6oJvt0cA6A79a-160" value="geometry" style="ellipse;whiteSpace=wrap;html=1;align=center;" vertex="1" parent="plB8owl6oJvt0cA6A79a-187">
          <mxGeometry x="240" y="90" width="100" height="40" as="geometry" />
        </mxCell>
        <mxCell id="plB8owl6oJvt0cA6A79a-181" value="" style="endArrow=none;html=1;rounded=0;" edge="1" parent="plB8owl6oJvt0cA6A79a-187" source="plB8owl6oJvt0cA6A79a-160" target="plB8owl6oJvt0cA6A79a-156">
          <mxGeometry relative="1" as="geometry">
            <mxPoint x="220" y="480" as="sourcePoint" />
            <mxPoint x="180" y="480" as="targetPoint" />
          </mxGeometry>
        </mxCell>
        <mxCell id="plB8owl6oJvt0cA6A79a-189" value="" style="group" connectable="0" vertex="1" parent="1">
          <mxGeometry x="-820" y="150" width="520" height="490" as="geometry" />
        </mxCell>
        <mxCell id="plB8owl6oJvt0cA6A79a-14" value="Location" style="rounded=1;arcSize=10;whiteSpace=wrap;html=1;align=center;" vertex="1" parent="plB8owl6oJvt0cA6A79a-189">
          <mxGeometry x="230" y="280" width="100" height="40" as="geometry" />
        </mxCell>
        <mxCell id="plB8owl6oJvt0cA6A79a-141" value="locationDbId" style="ellipse;whiteSpace=wrap;html=1;align=center;fontStyle=4;" vertex="1" parent="plB8owl6oJvt0cA6A79a-189">
          <mxGeometry x="100" y="370" width="100" height="40" as="geometry" />
        </mxCell>
        <mxCell id="plB8owl6oJvt0cA6A79a-142" value="locationName" style="ellipse;whiteSpace=wrap;html=1;align=center;" vertex="1" parent="plB8owl6oJvt0cA6A79a-189">
          <mxGeometry y="350" width="100" height="40" as="geometry" />
        </mxCell>
        <mxCell id="plB8owl6oJvt0cA6A79a-143" value="abbreviation" style="ellipse;whiteSpace=wrap;html=1;align=center;" vertex="1" parent="plB8owl6oJvt0cA6A79a-189">
          <mxGeometry x="30" y="270" width="100" height="40" as="geometry" />
        </mxCell>
        <mxCell id="plB8owl6oJvt0cA6A79a-144" value="coordinateDescription" style="ellipse;whiteSpace=wrap;html=1;align=center;" vertex="1" parent="plB8owl6oJvt0cA6A79a-189">
          <mxGeometry x="225" y="30" width="100" height="40" as="geometry" />
        </mxCell>
        <mxCell id="plB8owl6oJvt0cA6A79a-146" value="slope" style="ellipse;whiteSpace=wrap;html=1;align=center;" vertex="1" parent="plB8owl6oJvt0cA6A79a-189">
          <mxGeometry x="390" y="140" width="100" height="40" as="geometry" />
        </mxCell>
        <mxCell id="plB8owl6oJvt0cA6A79a-147" value="siteStatus" style="ellipse;whiteSpace=wrap;html=1;align=center;" vertex="1" parent="plB8owl6oJvt0cA6A79a-189">
          <mxGeometry x="330" y="100" width="100" height="40" as="geometry" />
        </mxCell>
        <mxCell id="plB8owl6oJvt0cA6A79a-148" value="locationType" style="ellipse;whiteSpace=wrap;html=1;align=center;" vertex="1" parent="plB8owl6oJvt0cA6A79a-189">
          <mxGeometry x="410" y="190" width="100" height="40" as="geometry" />
        </mxCell>
        <mxCell id="plB8owl6oJvt0cA6A79a-149" value="exposure" style="ellipse;whiteSpace=wrap;html=1;align=center;" vertex="1" parent="plB8owl6oJvt0cA6A79a-189">
          <mxGeometry x="410" y="260" width="100" height="40" as="geometry" />
        </mxCell>
        <mxCell id="plB8owl6oJvt0cA6A79a-150" value="environmentType" style="ellipse;whiteSpace=wrap;html=1;align=center;" vertex="1" parent="plB8owl6oJvt0cA6A79a-189">
          <mxGeometry x="100" y="140" width="100" height="40" as="geometry" />
        </mxCell>
        <mxCell id="plB8owl6oJvt0cA6A79a-151" value="documentationURL" style="ellipse;whiteSpace=wrap;html=1;align=center;" vertex="1" parent="plB8owl6oJvt0cA6A79a-189">
          <mxGeometry x="420" y="310" width="100" height="40" as="geometry" />
        </mxCell>
        <mxCell id="plB8owl6oJvt0cA6A79a-153" value="coordinateUncertainty" style="ellipse;whiteSpace=wrap;html=1;align=center;" vertex="1" parent="plB8owl6oJvt0cA6A79a-189">
          <mxGeometry x="140" y="80" width="100" height="40" as="geometry" />
        </mxCell>
        <mxCell id="plB8owl6oJvt0cA6A79a-154" value="has_parent_location" style="shape=rhombus;perimeter=rhombusPerimeter;whiteSpace=wrap;html=1;align=center;" vertex="1" parent="plB8owl6oJvt0cA6A79a-189">
          <mxGeometry x="200" y="430" width="150" height="60" as="geometry" />
        </mxCell>
        <mxCell id="plB8owl6oJvt0cA6A79a-161" value="" style="endArrow=none;html=1;rounded=0;" edge="1" parent="plB8owl6oJvt0cA6A79a-189" source="plB8owl6oJvt0cA6A79a-141" target="plB8owl6oJvt0cA6A79a-14">
          <mxGeometry relative="1" as="geometry">
            <mxPoint x="218" y="-273" as="sourcePoint" />
            <mxPoint x="257" y="-250" as="targetPoint" />
          </mxGeometry>
        </mxCell>
        <mxCell id="plB8owl6oJvt0cA6A79a-162" value="" style="endArrow=none;html=1;rounded=0;" edge="1" parent="plB8owl6oJvt0cA6A79a-189" source="plB8owl6oJvt0cA6A79a-142" target="plB8owl6oJvt0cA6A79a-14">
          <mxGeometry relative="1" as="geometry">
            <mxPoint x="160" y="272" as="sourcePoint" />
            <mxPoint x="240" y="295" as="targetPoint" />
          </mxGeometry>
        </mxCell>
        <mxCell id="plB8owl6oJvt0cA6A79a-163" value="" style="endArrow=none;html=1;rounded=0;" edge="1" parent="plB8owl6oJvt0cA6A79a-189" source="plB8owl6oJvt0cA6A79a-143" target="plB8owl6oJvt0cA6A79a-14">
          <mxGeometry relative="1" as="geometry">
            <mxPoint x="155" y="217" as="sourcePoint" />
            <mxPoint x="261" y="290" as="targetPoint" />
          </mxGeometry>
        </mxCell>
        <mxCell id="plB8owl6oJvt0cA6A79a-164" value="" style="endArrow=none;html=1;rounded=0;" edge="1" parent="plB8owl6oJvt0cA6A79a-189" source="plB8owl6oJvt0cA6A79a-144" target="plB8owl6oJvt0cA6A79a-14">
          <mxGeometry relative="1" as="geometry">
            <mxPoint x="157" y="159" as="sourcePoint" />
            <mxPoint x="272" y="290" as="targetPoint" />
          </mxGeometry>
        </mxCell>
        <mxCell id="plB8owl6oJvt0cA6A79a-165" value="" style="endArrow=none;html=1;rounded=0;" edge="1" parent="plB8owl6oJvt0cA6A79a-189" source="plB8owl6oJvt0cA6A79a-149" target="plB8owl6oJvt0cA6A79a-14">
          <mxGeometry relative="1" as="geometry">
            <mxPoint x="199" y="100" as="sourcePoint" />
            <mxPoint x="281" y="290" as="targetPoint" />
          </mxGeometry>
        </mxCell>
        <mxCell id="plB8owl6oJvt0cA6A79a-166" value="" style="endArrow=none;html=1;rounded=0;" edge="1" parent="plB8owl6oJvt0cA6A79a-189" source="plB8owl6oJvt0cA6A79a-153" target="plB8owl6oJvt0cA6A79a-14">
          <mxGeometry relative="1" as="geometry">
            <mxPoint x="272" y="160" as="sourcePoint" />
            <mxPoint x="288" y="290" as="targetPoint" />
          </mxGeometry>
        </mxCell>
        <mxCell id="plB8owl6oJvt0cA6A79a-167" value="" style="endArrow=none;html=1;rounded=0;" edge="1" parent="plB8owl6oJvt0cA6A79a-189" source="plB8owl6oJvt0cA6A79a-151" target="plB8owl6oJvt0cA6A79a-14">
          <mxGeometry relative="1" as="geometry">
            <mxPoint x="271" y="60" as="sourcePoint" />
            <mxPoint x="289" y="290" as="targetPoint" />
          </mxGeometry>
        </mxCell>
        <mxCell id="plB8owl6oJvt0cA6A79a-168" value="" style="endArrow=none;html=1;rounded=0;" edge="1" parent="plB8owl6oJvt0cA6A79a-189" source="plB8owl6oJvt0cA6A79a-150" target="plB8owl6oJvt0cA6A79a-14">
          <mxGeometry relative="1" as="geometry">
            <mxPoint x="326" y="110" as="sourcePoint" />
            <mxPoint x="294" y="290" as="targetPoint" />
          </mxGeometry>
        </mxCell>
        <mxCell id="plB8owl6oJvt0cA6A79a-170" value="" style="endArrow=none;html=1;rounded=0;" edge="1" parent="plB8owl6oJvt0cA6A79a-189" source="plB8owl6oJvt0cA6A79a-147" target="plB8owl6oJvt0cA6A79a-14">
          <mxGeometry relative="1" as="geometry">
            <mxPoint x="384" y="247" as="sourcePoint" />
            <mxPoint x="320" y="290" as="targetPoint" />
          </mxGeometry>
        </mxCell>
        <mxCell id="plB8owl6oJvt0cA6A79a-171" value="" style="endArrow=none;html=1;rounded=0;" edge="1" parent="plB8owl6oJvt0cA6A79a-189" source="plB8owl6oJvt0cA6A79a-146" target="plB8owl6oJvt0cA6A79a-14">
          <mxGeometry relative="1" as="geometry">
            <mxPoint x="542" y="223" as="sourcePoint" />
            <mxPoint x="340" y="293" as="targetPoint" />
          </mxGeometry>
        </mxCell>
        <mxCell id="plB8owl6oJvt0cA6A79a-172" value="" style="endArrow=none;html=1;rounded=0;" edge="1" parent="plB8owl6oJvt0cA6A79a-189" source="plB8owl6oJvt0cA6A79a-148" target="plB8owl6oJvt0cA6A79a-14">
          <mxGeometry relative="1" as="geometry">
            <mxPoint x="550" y="310" as="sourcePoint" />
            <mxPoint x="340" y="310" as="targetPoint" />
          </mxGeometry>
        </mxCell>
        <mxCell id="plB8owl6oJvt0cA6A79a-173" value="" style="endArrow=none;html=1;rounded=0;dashed=1;dashPattern=1 2;entryX=0;entryY=0.5;entryDx=0;entryDy=0;" edge="1" parent="plB8owl6oJvt0cA6A79a-189" source="plB8owl6oJvt0cA6A79a-14" target="plB8owl6oJvt0cA6A79a-154">
          <mxGeometry relative="1" as="geometry">
            <mxPoint x="210" y="340" as="sourcePoint" />
            <mxPoint x="740" y="-30" as="targetPoint" />
          </mxGeometry>
        </mxCell>
        <mxCell id="plB8owl6oJvt0cA6A79a-174" value="1" style="resizable=0;html=1;whiteSpace=wrap;align=right;verticalAlign=bottom;" connectable="0" vertex="1" parent="plB8owl6oJvt0cA6A79a-173">
          <mxGeometry x="1" relative="1" as="geometry" />
        </mxCell>
        <mxCell id="plB8owl6oJvt0cA6A79a-175" value="" style="endArrow=none;html=1;rounded=0;dashed=1;dashPattern=1 2;entryX=1;entryY=0.5;entryDx=0;entryDy=0;" edge="1" parent="plB8owl6oJvt0cA6A79a-189" source="plB8owl6oJvt0cA6A79a-14" target="plB8owl6oJvt0cA6A79a-154">
          <mxGeometry relative="1" as="geometry">
            <mxPoint x="580" y="-30" as="sourcePoint" />
            <mxPoint x="740" y="-30" as="targetPoint" />
          </mxGeometry>
        </mxCell>
        <mxCell id="plB8owl6oJvt0cA6A79a-176" value="N" style="resizable=0;html=1;whiteSpace=wrap;align=right;verticalAlign=bottom;" connectable="0" vertex="1" parent="plB8owl6oJvt0cA6A79a-175">
          <mxGeometry x="1" relative="1" as="geometry" />
        </mxCell>
        <mxCell id="plB8owl6oJvt0cA6A79a-145" value="topography" style="ellipse;whiteSpace=wrap;html=1;align=center;" vertex="1" parent="plB8owl6oJvt0cA6A79a-189">
          <mxGeometry x="250" y="140" width="100" height="40" as="geometry" />
        </mxCell>
        <mxCell id="plB8owl6oJvt0cA6A79a-169" value="" style="endArrow=none;html=1;rounded=0;" edge="1" parent="plB8owl6oJvt0cA6A79a-189" source="plB8owl6oJvt0cA6A79a-145" target="plB8owl6oJvt0cA6A79a-14">
          <mxGeometry relative="1" as="geometry">
            <mxPoint x="449" y="129" as="sourcePoint" />
            <mxPoint x="308" y="290" as="targetPoint" />
          </mxGeometry>
        </mxCell>
        <mxCell id="plB8owl6oJvt0cA6A79a-190" value="" style="group" connectable="0" vertex="1" parent="1">
          <mxGeometry x="-500" y="1115" width="300" height="120" as="geometry" />
        </mxCell>
        <mxCell id="plB8owl6oJvt0cA6A79a-12" value="Season" style="rounded=1;arcSize=10;whiteSpace=wrap;html=1;align=center;" vertex="1" parent="plB8owl6oJvt0cA6A79a-190">
          <mxGeometry x="100" y="80" width="100" height="40" as="geometry" />
        </mxCell>
        <mxCell id="plB8owl6oJvt0cA6A79a-134" value="seasonDbId" style="ellipse;whiteSpace=wrap;html=1;align=center;fontStyle=4;" vertex="1" parent="plB8owl6oJvt0cA6A79a-190">
          <mxGeometry y="20" width="100" height="40" as="geometry" />
        </mxCell>
        <mxCell id="plB8owl6oJvt0cA6A79a-136" value="seasonName" style="ellipse;whiteSpace=wrap;html=1;align=center;" vertex="1" parent="plB8owl6oJvt0cA6A79a-190">
          <mxGeometry x="110" width="100" height="40" as="geometry" />
        </mxCell>
        <mxCell id="plB8owl6oJvt0cA6A79a-137" value="year" style="ellipse;whiteSpace=wrap;html=1;align=center;" vertex="1" parent="plB8owl6oJvt0cA6A79a-190">
          <mxGeometry x="200" y="10" width="100" height="40" as="geometry" />
        </mxCell>
        <mxCell id="plB8owl6oJvt0cA6A79a-138" value="" style="endArrow=none;html=1;rounded=0;" edge="1" parent="plB8owl6oJvt0cA6A79a-190" source="plB8owl6oJvt0cA6A79a-134" target="plB8owl6oJvt0cA6A79a-12">
          <mxGeometry relative="1" as="geometry">
            <mxPoint x="55" y="-156" as="sourcePoint" />
            <mxPoint x="94" y="-105" as="targetPoint" />
          </mxGeometry>
        </mxCell>
        <mxCell id="plB8owl6oJvt0cA6A79a-139" value="" style="endArrow=none;html=1;rounded=0;" edge="1" parent="plB8owl6oJvt0cA6A79a-190" source="plB8owl6oJvt0cA6A79a-136" target="plB8owl6oJvt0cA6A79a-12">
          <mxGeometry relative="1" as="geometry">
            <mxPoint x="88" y="67" as="sourcePoint" />
            <mxPoint x="127" y="90" as="targetPoint" />
          </mxGeometry>
        </mxCell>
        <mxCell id="plB8owl6oJvt0cA6A79a-140" value="" style="endArrow=none;html=1;rounded=0;" edge="1" parent="plB8owl6oJvt0cA6A79a-190" source="plB8owl6oJvt0cA6A79a-137" target="plB8owl6oJvt0cA6A79a-12">
          <mxGeometry relative="1" as="geometry">
            <mxPoint x="168" y="50" as="sourcePoint" />
            <mxPoint x="163" y="90" as="targetPoint" />
          </mxGeometry>
        </mxCell>
        <mxCell id="plB8owl6oJvt0cA6A79a-191" value="" style="group" connectable="0" vertex="1" parent="1">
          <mxGeometry x="-320" y="930" width="220" height="130" as="geometry" />
        </mxCell>
        <mxCell id="plB8owl6oJvt0cA6A79a-9" value="CommonCropName" style="rounded=1;arcSize=10;whiteSpace=wrap;html=1;align=center;" vertex="1" parent="plB8owl6oJvt0cA6A79a-191">
          <mxGeometry x="100" y="90" width="120" height="40" as="geometry" />
        </mxCell>
        <mxCell id="plB8owl6oJvt0cA6A79a-97" value="commonCropName" style="ellipse;whiteSpace=wrap;html=1;align=center;" vertex="1" parent="plB8owl6oJvt0cA6A79a-191">
          <mxGeometry x="30" width="120" height="40" as="geometry" />
        </mxCell>
        <mxCell id="plB8owl6oJvt0cA6A79a-98" value="cropDbId" style="ellipse;whiteSpace=wrap;html=1;align=center;fontStyle=4;" vertex="1" parent="plB8owl6oJvt0cA6A79a-191">
          <mxGeometry y="50" width="100" height="40" as="geometry" />
        </mxCell>
        <mxCell id="plB8owl6oJvt0cA6A79a-99" value="" style="endArrow=none;html=1;rounded=0;" edge="1" parent="plB8owl6oJvt0cA6A79a-191" source="plB8owl6oJvt0cA6A79a-97" target="plB8owl6oJvt0cA6A79a-9">
          <mxGeometry relative="1" as="geometry">
            <mxPoint x="306" y="-137" as="sourcePoint" />
            <mxPoint x="339" y="-77" as="targetPoint" />
          </mxGeometry>
        </mxCell>
        <mxCell id="plB8owl6oJvt0cA6A79a-100" value="" style="endArrow=none;html=1;rounded=0;" edge="1" parent="plB8owl6oJvt0cA6A79a-191" source="plB8owl6oJvt0cA6A79a-98" target="plB8owl6oJvt0cA6A79a-9">
          <mxGeometry relative="1" as="geometry">
            <mxPoint x="115" y="49" as="sourcePoint" />
            <mxPoint x="154" y="100" as="targetPoint" />
          </mxGeometry>
        </mxCell>
        <mxCell id="plB8owl6oJvt0cA6A79a-193" value="" style="group" connectable="0" vertex="1" parent="1">
          <mxGeometry x="-350" y="-730" width="180" height="140" as="geometry" />
        </mxCell>
        <mxCell id="plB8owl6oJvt0cA6A79a-1" value="Country" style="rounded=1;arcSize=10;whiteSpace=wrap;html=1;align=center;" vertex="1" parent="plB8owl6oJvt0cA6A79a-193">
          <mxGeometry x="80" y="100" width="100" height="40" as="geometry" />
        </mxCell>
        <mxCell id="plB8owl6oJvt0cA6A79a-2" value="countryCode" style="ellipse;whiteSpace=wrap;html=1;align=center;fontStyle=4;" vertex="1" parent="plB8owl6oJvt0cA6A79a-193">
          <mxGeometry y="60" width="100" height="40" as="geometry" />
        </mxCell>
        <mxCell id="plB8owl6oJvt0cA6A79a-4" value="countryName" style="ellipse;whiteSpace=wrap;html=1;align=center;" vertex="1" parent="plB8owl6oJvt0cA6A79a-193">
          <mxGeometry x="25" width="100" height="40" as="geometry" />
        </mxCell>
        <mxCell id="plB8owl6oJvt0cA6A79a-5" value="" style="endArrow=none;html=1;rounded=0;" edge="1" parent="plB8owl6oJvt0cA6A79a-193" source="plB8owl6oJvt0cA6A79a-2" target="plB8owl6oJvt0cA6A79a-1">
          <mxGeometry relative="1" as="geometry">
            <mxPoint x="300" y="680" as="sourcePoint" />
            <mxPoint x="460" y="680" as="targetPoint" />
          </mxGeometry>
        </mxCell>
        <mxCell id="plB8owl6oJvt0cA6A79a-6" value="" style="endArrow=none;html=1;rounded=0;" edge="1" parent="plB8owl6oJvt0cA6A79a-193" source="plB8owl6oJvt0cA6A79a-4" target="plB8owl6oJvt0cA6A79a-1">
          <mxGeometry relative="1" as="geometry">
            <mxPoint x="70" y="110" as="sourcePoint" />
            <mxPoint x="100" y="170" as="targetPoint" />
          </mxGeometry>
        </mxCell>
        <mxCell id="plB8owl6oJvt0cA6A79a-194" value="" style="group" connectable="0" vertex="1" parent="1">
          <mxGeometry x="40" y="-960" width="400" height="220" as="geometry" />
        </mxCell>
        <mxCell id="plB8owl6oJvt0cA6A79a-33" value="postalCode" style="ellipse;whiteSpace=wrap;html=1;align=center;" vertex="1" parent="plB8owl6oJvt0cA6A79a-194">
          <mxGeometry x="280" y="10" width="100" height="40" as="geometry" />
        </mxCell>
        <mxCell id="plB8owl6oJvt0cA6A79a-57" value="buildingNumber" style="ellipse;whiteSpace=wrap;html=1;align=center;" vertex="1" parent="plB8owl6oJvt0cA6A79a-194">
          <mxGeometry x="100" y="70" width="100" height="40" as="geometry" />
        </mxCell>
        <mxCell id="plB8owl6oJvt0cA6A79a-58" value="buildingName" style="ellipse;whiteSpace=wrap;html=1;align=center;" vertex="1" parent="plB8owl6oJvt0cA6A79a-194">
          <mxGeometry x="10" y="50" width="100" height="40" as="geometry" />
        </mxCell>
        <mxCell id="plB8owl6oJvt0cA6A79a-59" value="buildingFloor" style="ellipse;whiteSpace=wrap;html=1;align=center;" vertex="1" parent="plB8owl6oJvt0cA6A79a-194">
          <mxGeometry y="100" width="100" height="40" as="geometry" />
        </mxCell>
        <mxCell id="plB8owl6oJvt0cA6A79a-60" value="Address" style="rounded=1;arcSize=10;whiteSpace=wrap;html=1;align=center;" vertex="1" parent="plB8owl6oJvt0cA6A79a-194">
          <mxGeometry x="155" y="180" width="100" height="40" as="geometry" />
        </mxCell>
        <mxCell id="plB8owl6oJvt0cA6A79a-61" value="addressDbId" style="ellipse;whiteSpace=wrap;html=1;align=center;fontStyle=4;" vertex="1" parent="plB8owl6oJvt0cA6A79a-194">
          <mxGeometry x="10" y="150" width="100" height="40" as="geometry" />
        </mxCell>
        <mxCell id="plB8owl6oJvt0cA6A79a-80" value="cityLocality" style="ellipse;whiteSpace=wrap;html=1;align=center;" vertex="1" parent="plB8owl6oJvt0cA6A79a-194">
          <mxGeometry x="300" y="70" width="100" height="40" as="geometry" />
        </mxCell>
        <mxCell id="plB8owl6oJvt0cA6A79a-81" value="streetNumber" style="ellipse;whiteSpace=wrap;html=1;align=center;" vertex="1" parent="plB8owl6oJvt0cA6A79a-194">
          <mxGeometry x="200" y="40" width="100" height="40" as="geometry" />
        </mxCell>
        <mxCell id="plB8owl6oJvt0cA6A79a-82" value="streetName" style="ellipse;whiteSpace=wrap;html=1;align=center;" vertex="1" parent="plB8owl6oJvt0cA6A79a-194">
          <mxGeometry x="150" width="100" height="40" as="geometry" />
        </mxCell>
        <mxCell id="plB8owl6oJvt0cA6A79a-83" value="stateProvince" style="ellipse;whiteSpace=wrap;html=1;align=center;" vertex="1" parent="plB8owl6oJvt0cA6A79a-194">
          <mxGeometry x="300" y="120" width="100" height="40" as="geometry" />
        </mxCell>
        <mxCell id="plB8owl6oJvt0cA6A79a-84" value="" style="endArrow=none;html=1;rounded=0;" edge="1" parent="plB8owl6oJvt0cA6A79a-194" source="plB8owl6oJvt0cA6A79a-60" target="plB8owl6oJvt0cA6A79a-61">
          <mxGeometry relative="1" as="geometry">
            <mxPoint x="602" y="460" as="sourcePoint" />
            <mxPoint x="628" y="230" as="targetPoint" />
          </mxGeometry>
        </mxCell>
        <mxCell id="plB8owl6oJvt0cA6A79a-85" value="" style="endArrow=none;html=1;rounded=0;" edge="1" parent="plB8owl6oJvt0cA6A79a-194" source="plB8owl6oJvt0cA6A79a-60" target="plB8owl6oJvt0cA6A79a-33">
          <mxGeometry relative="1" as="geometry">
            <mxPoint x="205" y="190" as="sourcePoint" />
            <mxPoint x="140" y="60" as="targetPoint" />
          </mxGeometry>
        </mxCell>
        <mxCell id="plB8owl6oJvt0cA6A79a-86" value="" style="endArrow=none;html=1;rounded=0;" edge="1" parent="plB8owl6oJvt0cA6A79a-194" source="plB8owl6oJvt0cA6A79a-60" target="plB8owl6oJvt0cA6A79a-81">
          <mxGeometry relative="1" as="geometry">
            <mxPoint x="189" y="190" as="sourcePoint" />
            <mxPoint x="133" y="148" as="targetPoint" />
          </mxGeometry>
        </mxCell>
        <mxCell id="plB8owl6oJvt0cA6A79a-87" value="" style="endArrow=none;html=1;rounded=0;" edge="1" parent="plB8owl6oJvt0cA6A79a-194" source="plB8owl6oJvt0cA6A79a-60" target="plB8owl6oJvt0cA6A79a-58">
          <mxGeometry relative="1" as="geometry">
            <mxPoint x="199" y="200" as="sourcePoint" />
            <mxPoint x="143" y="158" as="targetPoint" />
          </mxGeometry>
        </mxCell>
        <mxCell id="plB8owl6oJvt0cA6A79a-88" value="" style="endArrow=none;html=1;rounded=0;" edge="1" parent="plB8owl6oJvt0cA6A79a-194" source="plB8owl6oJvt0cA6A79a-60" target="plB8owl6oJvt0cA6A79a-57">
          <mxGeometry relative="1" as="geometry">
            <mxPoint x="209" y="210" as="sourcePoint" />
            <mxPoint x="153" y="168" as="targetPoint" />
          </mxGeometry>
        </mxCell>
        <mxCell id="plB8owl6oJvt0cA6A79a-89" value="" style="endArrow=none;html=1;rounded=0;" edge="1" parent="plB8owl6oJvt0cA6A79a-194" source="plB8owl6oJvt0cA6A79a-60" target="plB8owl6oJvt0cA6A79a-59">
          <mxGeometry relative="1" as="geometry">
            <mxPoint x="219" y="220" as="sourcePoint" />
            <mxPoint x="163" y="178" as="targetPoint" />
          </mxGeometry>
        </mxCell>
        <mxCell id="plB8owl6oJvt0cA6A79a-90" value="" style="endArrow=none;html=1;rounded=0;" edge="1" parent="plB8owl6oJvt0cA6A79a-194" source="plB8owl6oJvt0cA6A79a-60" target="plB8owl6oJvt0cA6A79a-82">
          <mxGeometry relative="1" as="geometry">
            <mxPoint x="229" y="230" as="sourcePoint" />
            <mxPoint x="173" y="188" as="targetPoint" />
          </mxGeometry>
        </mxCell>
        <mxCell id="plB8owl6oJvt0cA6A79a-91" value="" style="endArrow=none;html=1;rounded=0;" edge="1" parent="plB8owl6oJvt0cA6A79a-194" source="plB8owl6oJvt0cA6A79a-80" target="plB8owl6oJvt0cA6A79a-60">
          <mxGeometry relative="1" as="geometry">
            <mxPoint x="239" y="240" as="sourcePoint" />
            <mxPoint x="183" y="198" as="targetPoint" />
          </mxGeometry>
        </mxCell>
        <mxCell id="plB8owl6oJvt0cA6A79a-92" value="" style="endArrow=none;html=1;rounded=0;" edge="1" parent="plB8owl6oJvt0cA6A79a-194" source="plB8owl6oJvt0cA6A79a-60" target="plB8owl6oJvt0cA6A79a-83">
          <mxGeometry relative="1" as="geometry">
            <mxPoint x="249" y="250" as="sourcePoint" />
            <mxPoint x="193" y="208" as="targetPoint" />
          </mxGeometry>
        </mxCell>
        <mxCell id="plB8owl6oJvt0cA6A79a-195" value="" style="group" connectable="0" vertex="1" parent="1">
          <mxGeometry x="530" y="-720" width="270" height="280" as="geometry" />
        </mxCell>
        <mxCell id="plB8owl6oJvt0cA6A79a-7" value="Institute" style="rounded=1;arcSize=10;whiteSpace=wrap;html=1;align=center;" vertex="1" parent="plB8owl6oJvt0cA6A79a-195">
          <mxGeometry y="240" width="100" height="40" as="geometry" />
        </mxCell>
        <mxCell id="plB8owl6oJvt0cA6A79a-31" value="instituteDbId" style="ellipse;whiteSpace=wrap;html=1;align=center;fontStyle=4;" vertex="1" parent="plB8owl6oJvt0cA6A79a-195">
          <mxGeometry x="170" y="170" width="100" height="40" as="geometry" />
        </mxCell>
        <mxCell id="plB8owl6oJvt0cA6A79a-32" value="instituteName" style="ellipse;whiteSpace=wrap;html=1;align=center;" vertex="1" parent="plB8owl6oJvt0cA6A79a-195">
          <mxGeometry x="30" y="40" width="100" height="40" as="geometry" />
        </mxCell>
        <mxCell id="plB8owl6oJvt0cA6A79a-34" value="instituteURL" style="ellipse;whiteSpace=wrap;html=1;align=center;" vertex="1" parent="plB8owl6oJvt0cA6A79a-195">
          <mxGeometry x="150" y="120" width="100" height="40" as="geometry" />
        </mxCell>
        <mxCell id="plB8owl6oJvt0cA6A79a-35" value="instituteType" style="ellipse;whiteSpace=wrap;html=1;align=center;" vertex="1" parent="plB8owl6oJvt0cA6A79a-195">
          <mxGeometry x="150" y="50" width="100" height="40" as="geometry" />
        </mxCell>
        <mxCell id="plB8owl6oJvt0cA6A79a-36" value="instituteROR" style="ellipse;whiteSpace=wrap;html=1;align=center;" vertex="1" parent="plB8owl6oJvt0cA6A79a-195">
          <mxGeometry x="100" width="100" height="40" as="geometry" />
        </mxCell>
        <mxCell id="plB8owl6oJvt0cA6A79a-37" value="" style="endArrow=none;html=1;rounded=0;" edge="1" parent="plB8owl6oJvt0cA6A79a-195" source="plB8owl6oJvt0cA6A79a-7" target="plB8owl6oJvt0cA6A79a-31">
          <mxGeometry relative="1" as="geometry">
            <mxPoint x="-219" y="370" as="sourcePoint" />
            <mxPoint x="-301" y="550" as="targetPoint" />
          </mxGeometry>
        </mxCell>
        <mxCell id="plB8owl6oJvt0cA6A79a-38" value="" style="endArrow=none;html=1;rounded=0;" edge="1" parent="plB8owl6oJvt0cA6A79a-195" source="plB8owl6oJvt0cA6A79a-7" target="plB8owl6oJvt0cA6A79a-32">
          <mxGeometry relative="1" as="geometry">
            <mxPoint x="95" y="310" as="sourcePoint" />
            <mxPoint x="75" y="240" as="targetPoint" />
          </mxGeometry>
        </mxCell>
        <mxCell id="plB8owl6oJvt0cA6A79a-40" value="" style="endArrow=none;html=1;rounded=0;" edge="1" parent="plB8owl6oJvt0cA6A79a-195" source="plB8owl6oJvt0cA6A79a-7" target="plB8owl6oJvt0cA6A79a-36">
          <mxGeometry relative="1" as="geometry">
            <mxPoint x="115" y="330" as="sourcePoint" />
            <mxPoint x="95" y="260" as="targetPoint" />
          </mxGeometry>
        </mxCell>
        <mxCell id="plB8owl6oJvt0cA6A79a-41" value="" style="endArrow=none;html=1;rounded=0;" edge="1" parent="plB8owl6oJvt0cA6A79a-195" source="plB8owl6oJvt0cA6A79a-7" target="plB8owl6oJvt0cA6A79a-35">
          <mxGeometry relative="1" as="geometry">
            <mxPoint x="125" y="340" as="sourcePoint" />
            <mxPoint x="105" y="270" as="targetPoint" />
          </mxGeometry>
        </mxCell>
        <mxCell id="plB8owl6oJvt0cA6A79a-42" value="" style="endArrow=none;html=1;rounded=0;" edge="1" parent="plB8owl6oJvt0cA6A79a-195" source="plB8owl6oJvt0cA6A79a-7" target="plB8owl6oJvt0cA6A79a-34">
          <mxGeometry relative="1" as="geometry">
            <mxPoint x="135" y="350" as="sourcePoint" />
            <mxPoint x="115" y="280" as="targetPoint" />
          </mxGeometry>
        </mxCell>
        <mxCell id="plB8owl6oJvt0cA6A79a-196" value="" style="group" connectable="0" vertex="1" parent="1">
          <mxGeometry x="990" y="-510" width="190" height="130" as="geometry" />
        </mxCell>
        <mxCell id="plB8owl6oJvt0cA6A79a-47" value="&lt;span style=&quot;border-bottom: 1px dotted&quot;&gt;instituteAlias&lt;/span&gt;" style="ellipse;whiteSpace=wrap;html=1;align=center;" vertex="1" parent="plB8owl6oJvt0cA6A79a-196">
          <mxGeometry x="50" y="20" width="100" height="40" as="geometry" />
        </mxCell>
        <mxCell id="plB8owl6oJvt0cA6A79a-48" value="" style="endArrow=none;html=1;rounded=0;" edge="1" parent="plB8owl6oJvt0cA6A79a-196" source="plB8owl6oJvt0cA6A79a-47" target="plB8owl6oJvt0cA6A79a-49">
          <mxGeometry relative="1" as="geometry">
            <mxPoint x="-545" y="140" as="sourcePoint" />
            <mxPoint x="-555" y="160" as="targetPoint" />
          </mxGeometry>
        </mxCell>
        <mxCell id="plB8owl6oJvt0cA6A79a-49" value="InstituteAlias" style="shape=ext;margin=3;double=1;whiteSpace=wrap;html=1;align=center;" vertex="1" parent="plB8owl6oJvt0cA6A79a-196">
          <mxGeometry x="90" y="90" width="100" height="40" as="geometry" />
        </mxCell>
        <mxCell id="plB8owl6oJvt0cA6A79a-220" value="" style="group" connectable="0" vertex="1" parent="1">
          <mxGeometry x="-980" y="-490" width="415" height="280" as="geometry" />
        </mxCell>
        <mxCell id="plB8owl6oJvt0cA6A79a-198" value="listDbId" style="ellipse;whiteSpace=wrap;html=1;align=center;fontStyle=4;container=0;" vertex="1" parent="plB8owl6oJvt0cA6A79a-220">
          <mxGeometry x="115" y="240" width="100" height="40" as="geometry" />
        </mxCell>
        <mxCell id="plB8owl6oJvt0cA6A79a-209" value="" style="endArrow=none;html=1;rounded=0;" edge="1" parent="plB8owl6oJvt0cA6A79a-220" source="plB8owl6oJvt0cA6A79a-16" target="plB8owl6oJvt0cA6A79a-198">
          <mxGeometry relative="1" as="geometry">
            <mxPoint x="401" y="-430" as="sourcePoint" />
            <mxPoint x="419" y="-400" as="targetPoint" />
          </mxGeometry>
        </mxCell>
        <mxCell id="plB8owl6oJvt0cA6A79a-199" value="listName" style="ellipse;whiteSpace=wrap;html=1;align=center;container=0;" vertex="1" parent="plB8owl6oJvt0cA6A79a-220">
          <mxGeometry x="90" y="190" width="100" height="40" as="geometry" />
        </mxCell>
        <mxCell id="plB8owl6oJvt0cA6A79a-210" value="" style="endArrow=none;html=1;rounded=0;" edge="1" parent="plB8owl6oJvt0cA6A79a-220" source="plB8owl6oJvt0cA6A79a-16" target="plB8owl6oJvt0cA6A79a-199">
          <mxGeometry relative="1" as="geometry">
            <mxPoint x="261" y="160" as="sourcePoint" />
            <mxPoint x="239" y="129" as="targetPoint" />
          </mxGeometry>
        </mxCell>
        <mxCell id="plB8owl6oJvt0cA6A79a-200" value="listType" style="ellipse;whiteSpace=wrap;html=1;align=center;container=0;" vertex="1" parent="plB8owl6oJvt0cA6A79a-220">
          <mxGeometry y="160" width="100" height="40" as="geometry" />
        </mxCell>
        <mxCell id="plB8owl6oJvt0cA6A79a-211" value="" style="endArrow=none;html=1;rounded=0;" edge="1" parent="plB8owl6oJvt0cA6A79a-220" source="plB8owl6oJvt0cA6A79a-16" target="plB8owl6oJvt0cA6A79a-200">
          <mxGeometry relative="1" as="geometry">
            <mxPoint x="287" y="160" as="sourcePoint" />
            <mxPoint x="323" y="99" as="targetPoint" />
          </mxGeometry>
        </mxCell>
        <mxCell id="plB8owl6oJvt0cA6A79a-16" value="ListDetails" style="rounded=1;arcSize=10;whiteSpace=wrap;html=1;align=center;container=0;" vertex="1" parent="plB8owl6oJvt0cA6A79a-220">
          <mxGeometry x="215" y="150" width="100" height="40" as="geometry" />
        </mxCell>
        <mxCell id="plB8owl6oJvt0cA6A79a-201" value="dateCreated" style="ellipse;whiteSpace=wrap;html=1;align=center;container=0;" vertex="1" parent="plB8owl6oJvt0cA6A79a-220">
          <mxGeometry x="100" y="130" width="100" height="40" as="geometry" />
        </mxCell>
        <mxCell id="plB8owl6oJvt0cA6A79a-204" value="listDescription" style="ellipse;whiteSpace=wrap;html=1;align=center;container=0;" vertex="1" parent="plB8owl6oJvt0cA6A79a-220">
          <mxGeometry x="115" y="20" width="100" height="40" as="geometry" />
        </mxCell>
        <mxCell id="plB8owl6oJvt0cA6A79a-205" value="listSize" style="ellipse;whiteSpace=wrap;html=1;align=center;container=0;" vertex="1" parent="plB8owl6oJvt0cA6A79a-220">
          <mxGeometry x="215" y="210" width="100" height="40" as="geometry" />
        </mxCell>
        <mxCell id="plB8owl6oJvt0cA6A79a-206" value="listSource" style="ellipse;whiteSpace=wrap;html=1;align=center;container=0;" vertex="1" parent="plB8owl6oJvt0cA6A79a-220">
          <mxGeometry x="315" width="100" height="40" as="geometry" />
        </mxCell>
        <mxCell id="plB8owl6oJvt0cA6A79a-208" value="dateModified" style="ellipse;whiteSpace=wrap;html=1;align=center;container=0;" vertex="1" parent="plB8owl6oJvt0cA6A79a-220">
          <mxGeometry x="90" y="70" width="100" height="40" as="geometry" />
        </mxCell>
        <mxCell id="plB8owl6oJvt0cA6A79a-212" value="" style="endArrow=none;html=1;rounded=0;" edge="1" parent="plB8owl6oJvt0cA6A79a-220" source="plB8owl6oJvt0cA6A79a-16" target="plB8owl6oJvt0cA6A79a-201">
          <mxGeometry relative="1" as="geometry">
            <mxPoint x="325" y="165" as="sourcePoint" />
            <mxPoint x="365" y="152" as="targetPoint" />
          </mxGeometry>
        </mxCell>
        <mxCell id="plB8owl6oJvt0cA6A79a-213" value="" style="endArrow=none;html=1;rounded=0;" edge="1" parent="plB8owl6oJvt0cA6A79a-220" source="plB8owl6oJvt0cA6A79a-16" target="plB8owl6oJvt0cA6A79a-204">
          <mxGeometry relative="1" as="geometry">
            <mxPoint x="325" y="187" as="sourcePoint" />
            <mxPoint x="378" y="194" as="targetPoint" />
          </mxGeometry>
        </mxCell>
        <mxCell id="plB8owl6oJvt0cA6A79a-214" value="" style="endArrow=none;html=1;rounded=0;" edge="1" parent="plB8owl6oJvt0cA6A79a-220" source="plB8owl6oJvt0cA6A79a-16" target="plB8owl6oJvt0cA6A79a-205">
          <mxGeometry relative="1" as="geometry">
            <mxPoint x="335" y="197" as="sourcePoint" />
            <mxPoint x="388" y="204" as="targetPoint" />
          </mxGeometry>
        </mxCell>
        <mxCell id="plB8owl6oJvt0cA6A79a-217" value="" style="endArrow=none;html=1;rounded=0;" edge="1" parent="plB8owl6oJvt0cA6A79a-220" source="plB8owl6oJvt0cA6A79a-16" target="plB8owl6oJvt0cA6A79a-206">
          <mxGeometry relative="1" as="geometry">
            <mxPoint x="345" y="207" as="sourcePoint" />
            <mxPoint x="398" y="214" as="targetPoint" />
          </mxGeometry>
        </mxCell>
        <mxCell id="plB8owl6oJvt0cA6A79a-218" value="" style="endArrow=none;html=1;rounded=0;" edge="1" parent="plB8owl6oJvt0cA6A79a-220" source="plB8owl6oJvt0cA6A79a-16" target="plB8owl6oJvt0cA6A79a-208">
          <mxGeometry relative="1" as="geometry">
            <mxPoint x="355" y="217" as="sourcePoint" />
            <mxPoint x="408" y="224" as="targetPoint" />
          </mxGeometry>
        </mxCell>
        <mxCell id="plB8owl6oJvt0cA6A79a-221" value="has_owner" style="shape=rhombus;perimeter=rhombusPerimeter;whiteSpace=wrap;html=1;align=center;" vertex="1" parent="1">
          <mxGeometry x="-530" y="-320" width="120" height="60" as="geometry" />
        </mxCell>
        <mxCell id="plB8owl6oJvt0cA6A79a-222" value="" style="endArrow=none;html=1;rounded=0;" edge="1" parent="1" source="plB8owl6oJvt0cA6A79a-16" target="plB8owl6oJvt0cA6A79a-221">
          <mxGeometry relative="1" as="geometry">
            <mxPoint x="-810" y="160" as="sourcePoint" />
            <mxPoint x="-650" y="160" as="targetPoint" />
          </mxGeometry>
        </mxCell>
        <mxCell id="plB8owl6oJvt0cA6A79a-223" value="N" style="resizable=0;html=1;whiteSpace=wrap;align=right;verticalAlign=bottom;" connectable="0" vertex="1" parent="plB8owl6oJvt0cA6A79a-222">
          <mxGeometry x="1" relative="1" as="geometry">
            <mxPoint x="-52" y="-14" as="offset" />
          </mxGeometry>
        </mxCell>
        <mxCell id="plB8owl6oJvt0cA6A79a-225" value="" style="endArrow=none;html=1;rounded=0;dashed=1;dashPattern=1 2;" edge="1" parent="1" source="plB8owl6oJvt0cA6A79a-221" target="plB8owl6oJvt0cA6A79a-10">
          <mxGeometry relative="1" as="geometry">
            <mxPoint x="-260" y="160" as="sourcePoint" />
            <mxPoint x="-100" y="160" as="targetPoint" />
          </mxGeometry>
        </mxCell>
        <mxCell id="plB8owl6oJvt0cA6A79a-226" value="1" style="resizable=0;html=1;whiteSpace=wrap;align=right;verticalAlign=bottom;" connectable="0" vertex="1" parent="plB8owl6oJvt0cA6A79a-225">
          <mxGeometry x="1" relative="1" as="geometry">
            <mxPoint x="-170" y="-24" as="offset" />
          </mxGeometry>
        </mxCell>
        <mxCell id="plB8owl6oJvt0cA6A79a-231" value="has_list" style="shape=rhombus;double=1;perimeter=rhombusPerimeter;whiteSpace=wrap;html=1;align=center;" vertex="1" parent="1">
          <mxGeometry x="-780" y="-620" width="120" height="60" as="geometry" />
        </mxCell>
        <mxCell id="plB8owl6oJvt0cA6A79a-232" value="" style="endArrow=none;html=1;rounded=0;" edge="1" parent="1" source="plB8owl6oJvt0cA6A79a-231" target="plB8owl6oJvt0cA6A79a-227">
          <mxGeometry relative="1" as="geometry">
            <mxPoint x="-680" y="-400" as="sourcePoint" />
            <mxPoint x="-520" y="-400" as="targetPoint" />
          </mxGeometry>
        </mxCell>
        <mxCell id="plB8owl6oJvt0cA6A79a-233" value="N" style="resizable=0;html=1;whiteSpace=wrap;align=right;verticalAlign=bottom;" connectable="0" vertex="1" parent="plB8owl6oJvt0cA6A79a-232">
          <mxGeometry x="1" relative="1" as="geometry">
            <mxPoint x="-10" y="40" as="offset" />
          </mxGeometry>
        </mxCell>
        <mxCell id="plB8owl6oJvt0cA6A79a-234" value="" style="endArrow=none;html=1;rounded=0;dashed=1;dashPattern=1 2;" edge="1" parent="1" source="plB8owl6oJvt0cA6A79a-231" target="plB8owl6oJvt0cA6A79a-16">
          <mxGeometry relative="1" as="geometry">
            <mxPoint x="-680" y="-400" as="sourcePoint" />
            <mxPoint x="-520" y="-400" as="targetPoint" />
          </mxGeometry>
        </mxCell>
        <mxCell id="plB8owl6oJvt0cA6A79a-235" value="1" style="resizable=0;html=1;whiteSpace=wrap;align=right;verticalAlign=bottom;" connectable="0" vertex="1" parent="plB8owl6oJvt0cA6A79a-234">
          <mxGeometry x="1" relative="1" as="geometry">
            <mxPoint x="-5" y="-90" as="offset" />
          </mxGeometry>
        </mxCell>
        <mxCell id="plB8owl6oJvt0cA6A79a-236" value="" style="group" connectable="0" vertex="1" parent="1">
          <mxGeometry x="-770" y="-810" width="100" height="110" as="geometry" />
        </mxCell>
        <mxCell id="plB8owl6oJvt0cA6A79a-227" value="List" style="shape=ext;margin=3;double=1;whiteSpace=wrap;html=1;align=center;" vertex="1" parent="plB8owl6oJvt0cA6A79a-236">
          <mxGeometry y="70" width="100" height="40" as="geometry" />
        </mxCell>
        <mxCell id="plB8owl6oJvt0cA6A79a-229" value="&lt;span style=&quot;border-bottom: 1px dotted&quot;&gt;listItemDbId&lt;br&gt;&lt;/span&gt;" style="ellipse;whiteSpace=wrap;html=1;align=center;" vertex="1" parent="plB8owl6oJvt0cA6A79a-236">
          <mxGeometry width="100" height="40" as="geometry" />
        </mxCell>
        <mxCell id="plB8owl6oJvt0cA6A79a-230" value="" style="endArrow=none;html=1;rounded=0;" edge="1" parent="plB8owl6oJvt0cA6A79a-236" source="plB8owl6oJvt0cA6A79a-227" target="plB8owl6oJvt0cA6A79a-229">
          <mxGeometry relative="1" as="geometry">
            <mxPoint x="65" y="380" as="sourcePoint" />
            <mxPoint x="65" y="320" as="targetPoint" />
          </mxGeometry>
        </mxCell>
        <mxCell id="plB8owl6oJvt0cA6A79a-254" value="has_member" style="shape=rhombus;perimeter=rhombusPerimeter;whiteSpace=wrap;html=1;align=center;" vertex="1" parent="1">
          <mxGeometry x="130" y="-80" width="120" height="60" as="geometry" />
        </mxCell>
        <mxCell id="plB8owl6oJvt0cA6A79a-257" value="" style="group" connectable="0" vertex="1" parent="1">
          <mxGeometry x="-320" y="-510" width="360" height="290" as="geometry" />
        </mxCell>
        <mxCell id="plB8owl6oJvt0cA6A79a-103" value="&lt;div&gt;emailAddress&lt;/div&gt;" style="ellipse;whiteSpace=wrap;html=1;align=center;" vertex="1" parent="plB8owl6oJvt0cA6A79a-257">
          <mxGeometry x="50" y="10" width="100" height="40" as="geometry" />
        </mxCell>
        <mxCell id="plB8owl6oJvt0cA6A79a-104" value="orcid" style="ellipse;whiteSpace=wrap;html=1;align=center;" vertex="1" parent="plB8owl6oJvt0cA6A79a-257">
          <mxGeometry x="150" width="100" height="40" as="geometry" />
        </mxCell>
        <mxCell id="plB8owl6oJvt0cA6A79a-105" value="phoneNumber" style="ellipse;whiteSpace=wrap;html=1;align=center;" vertex="1" parent="plB8owl6oJvt0cA6A79a-257">
          <mxGeometry x="230" y="20" width="100" height="40" as="geometry" />
        </mxCell>
        <mxCell id="plB8owl6oJvt0cA6A79a-10" value="&lt;div&gt;Person&lt;/div&gt;" style="rounded=1;arcSize=10;whiteSpace=wrap;html=1;align=center;" vertex="1" parent="plB8owl6oJvt0cA6A79a-257">
          <mxGeometry x="220" y="250" width="100" height="40" as="geometry" />
        </mxCell>
        <mxCell id="plB8owl6oJvt0cA6A79a-102" value="description" style="ellipse;whiteSpace=wrap;html=1;align=center;" vertex="1" parent="plB8owl6oJvt0cA6A79a-257">
          <mxGeometry x="260" y="60" width="100" height="40" as="geometry" />
        </mxCell>
        <mxCell id="plB8owl6oJvt0cA6A79a-108" value="middleName" style="ellipse;whiteSpace=wrap;html=1;align=center;" vertex="1" parent="plB8owl6oJvt0cA6A79a-257">
          <mxGeometry y="110" width="100" height="40" as="geometry" />
        </mxCell>
        <mxCell id="plB8owl6oJvt0cA6A79a-109" value="firstName" style="ellipse;whiteSpace=wrap;html=1;align=center;" vertex="1" parent="plB8owl6oJvt0cA6A79a-257">
          <mxGeometry y="60" width="100" height="40" as="geometry" />
        </mxCell>
        <mxCell id="plB8owl6oJvt0cA6A79a-110" value="lastName" style="ellipse;whiteSpace=wrap;html=1;align=center;" vertex="1" parent="plB8owl6oJvt0cA6A79a-257">
          <mxGeometry x="80" y="100" width="100" height="40" as="geometry" />
        </mxCell>
        <mxCell id="plB8owl6oJvt0cA6A79a-117" value="" style="endArrow=none;html=1;rounded=0;" edge="1" parent="plB8owl6oJvt0cA6A79a-257" source="plB8owl6oJvt0cA6A79a-10" target="plB8owl6oJvt0cA6A79a-102">
          <mxGeometry relative="1" as="geometry">
            <mxPoint x="350" y="643" as="sourcePoint" />
            <mxPoint x="292" y="659" as="targetPoint" />
          </mxGeometry>
        </mxCell>
        <mxCell id="plB8owl6oJvt0cA6A79a-118" value="" style="endArrow=none;html=1;rounded=0;" edge="1" parent="plB8owl6oJvt0cA6A79a-257" source="plB8owl6oJvt0cA6A79a-10" target="plB8owl6oJvt0cA6A79a-109">
          <mxGeometry relative="1" as="geometry">
            <mxPoint x="360" y="653" as="sourcePoint" />
            <mxPoint x="302" y="669" as="targetPoint" />
          </mxGeometry>
        </mxCell>
        <mxCell id="plB8owl6oJvt0cA6A79a-119" value="" style="endArrow=none;html=1;rounded=0;" edge="1" parent="plB8owl6oJvt0cA6A79a-257" source="plB8owl6oJvt0cA6A79a-10" target="plB8owl6oJvt0cA6A79a-108">
          <mxGeometry relative="1" as="geometry">
            <mxPoint x="370" y="663" as="sourcePoint" />
            <mxPoint x="312" y="679" as="targetPoint" />
          </mxGeometry>
        </mxCell>
        <mxCell id="plB8owl6oJvt0cA6A79a-121" value="" style="endArrow=none;html=1;rounded=0;" edge="1" parent="plB8owl6oJvt0cA6A79a-257" source="plB8owl6oJvt0cA6A79a-10" target="plB8owl6oJvt0cA6A79a-110">
          <mxGeometry relative="1" as="geometry">
            <mxPoint x="420" y="612" as="sourcePoint" />
            <mxPoint x="457" y="620" as="targetPoint" />
          </mxGeometry>
        </mxCell>
        <mxCell id="plB8owl6oJvt0cA6A79a-101" value="personDbId" style="ellipse;whiteSpace=wrap;html=1;align=center;fontStyle=4;" vertex="1" parent="plB8owl6oJvt0cA6A79a-257">
          <mxGeometry x="130" y="70" width="100" height="40" as="geometry" />
        </mxCell>
        <mxCell id="plB8owl6oJvt0cA6A79a-115" value="" style="endArrow=none;html=1;rounded=0;" edge="1" parent="plB8owl6oJvt0cA6A79a-257" source="plB8owl6oJvt0cA6A79a-10" target="plB8owl6oJvt0cA6A79a-101">
          <mxGeometry relative="1" as="geometry">
            <mxPoint x="370" y="643" as="sourcePoint" />
            <mxPoint x="312" y="659" as="targetPoint" />
          </mxGeometry>
        </mxCell>
        <mxCell id="plB8owl6oJvt0cA6A79a-107" value="roleType" style="ellipse;whiteSpace=wrap;html=1;align=center;" vertex="1" parent="plB8owl6oJvt0cA6A79a-257">
          <mxGeometry x="200" y="110" width="100" height="40" as="geometry" />
        </mxCell>
        <mxCell id="plB8owl6oJvt0cA6A79a-113" value="" style="endArrow=none;html=1;rounded=0;" edge="1" parent="plB8owl6oJvt0cA6A79a-257" source="plB8owl6oJvt0cA6A79a-10" target="plB8owl6oJvt0cA6A79a-107">
          <mxGeometry relative="1" as="geometry">
            <mxPoint x="-45" y="409" as="sourcePoint" />
            <mxPoint x="340.59141511627286" y="308.8252783139501" as="targetPoint" />
          </mxGeometry>
        </mxCell>
        <mxCell id="plB8owl6oJvt0cA6A79a-106" value="userID" style="ellipse;whiteSpace=wrap;html=1;align=center;" vertex="1" parent="plB8owl6oJvt0cA6A79a-257">
          <mxGeometry x="20" y="160" width="100" height="40" as="geometry" />
        </mxCell>
        <mxCell id="plB8owl6oJvt0cA6A79a-114" value="" style="endArrow=none;html=1;rounded=0;" edge="1" parent="plB8owl6oJvt0cA6A79a-257" source="plB8owl6oJvt0cA6A79a-10" target="plB8owl6oJvt0cA6A79a-106">
          <mxGeometry relative="1" as="geometry">
            <mxPoint x="320" y="613" as="sourcePoint" />
            <mxPoint x="356.7035500937095" y="395.7201476358787" as="targetPoint" />
          </mxGeometry>
        </mxCell>
        <mxCell id="plB8owl6oJvt0cA6A79a-116" value="" style="endArrow=none;html=1;rounded=0;" edge="1" parent="plB8owl6oJvt0cA6A79a-257" source="plB8owl6oJvt0cA6A79a-10" target="plB8owl6oJvt0cA6A79a-103">
          <mxGeometry relative="1" as="geometry">
            <mxPoint x="20" y="123" as="sourcePoint" />
            <mxPoint x="-38" y="139" as="targetPoint" />
          </mxGeometry>
        </mxCell>
        <mxCell id="plB8owl6oJvt0cA6A79a-123" value="" style="endArrow=none;html=1;rounded=0;" edge="1" parent="plB8owl6oJvt0cA6A79a-257" source="plB8owl6oJvt0cA6A79a-10" target="plB8owl6oJvt0cA6A79a-104">
          <mxGeometry relative="1" as="geometry">
            <mxPoint x="100" y="83" as="sourcePoint" />
            <mxPoint x="283" y="57" as="targetPoint" />
          </mxGeometry>
        </mxCell>
        <mxCell id="plB8owl6oJvt0cA6A79a-120" value="" style="endArrow=none;html=1;rounded=0;" edge="1" parent="plB8owl6oJvt0cA6A79a-257" source="plB8owl6oJvt0cA6A79a-10" target="plB8owl6oJvt0cA6A79a-105">
          <mxGeometry relative="1" as="geometry">
            <mxPoint x="100" y="82" as="sourcePoint" />
            <mxPoint x="133" y="77" as="targetPoint" />
          </mxGeometry>
        </mxCell>
        <mxCell id="plB8owl6oJvt0cA6A79a-258" value="" style="endArrow=none;html=1;rounded=0;dashed=1;dashPattern=1 2;" edge="1" parent="1" source="plB8owl6oJvt0cA6A79a-10" target="plB8owl6oJvt0cA6A79a-254">
          <mxGeometry relative="1" as="geometry">
            <mxPoint x="190" y="170" as="sourcePoint" />
            <mxPoint x="350" y="170" as="targetPoint" />
          </mxGeometry>
        </mxCell>
        <mxCell id="plB8owl6oJvt0cA6A79a-259" value="N" style="resizable=0;html=1;whiteSpace=wrap;align=right;verticalAlign=bottom;" connectable="0" vertex="1" parent="plB8owl6oJvt0cA6A79a-258">
          <mxGeometry x="1" relative="1" as="geometry" />
        </mxCell>
        <mxCell id="plB8owl6oJvt0cA6A79a-262" value="" style="endArrow=none;html=1;rounded=0;dashed=1;dashPattern=1 2;" edge="1" parent="1" source="plB8owl6oJvt0cA6A79a-19" target="plB8owl6oJvt0cA6A79a-254">
          <mxGeometry relative="1" as="geometry">
            <mxPoint x="490" y="190" as="sourcePoint" />
            <mxPoint x="650" y="190" as="targetPoint" />
          </mxGeometry>
        </mxCell>
        <mxCell id="plB8owl6oJvt0cA6A79a-263" value="1" style="resizable=0;html=1;whiteSpace=wrap;align=right;verticalAlign=bottom;" connectable="0" vertex="1" parent="plB8owl6oJvt0cA6A79a-262">
          <mxGeometry x="1" relative="1" as="geometry">
            <mxPoint x="-2" y="31" as="offset" />
          </mxGeometry>
        </mxCell>
        <mxCell id="plB8owl6oJvt0cA6A79a-19" value="Program" style="rounded=1;arcSize=10;whiteSpace=wrap;html=1;align=center;container=0;" vertex="1" parent="1">
          <mxGeometry x="450" y="50" width="100" height="40" as="geometry" />
        </mxCell>
        <mxCell id="plB8owl6oJvt0cA6A79a-237" value="programDbId" style="ellipse;whiteSpace=wrap;html=1;align=center;fontStyle=4;container=0;" vertex="1" parent="1">
          <mxGeometry x="540" width="100" height="40" as="geometry" />
        </mxCell>
        <mxCell id="plB8owl6oJvt0cA6A79a-238" value="programType" style="ellipse;whiteSpace=wrap;html=1;align=center;container=0;" vertex="1" parent="1">
          <mxGeometry x="560" y="170" width="100" height="40" as="geometry" />
        </mxCell>
        <mxCell id="plB8owl6oJvt0cA6A79a-239" value="objective" style="ellipse;whiteSpace=wrap;html=1;align=center;container=0;" vertex="1" parent="1">
          <mxGeometry x="560" y="110" width="100" height="40" as="geometry" />
        </mxCell>
        <mxCell id="plB8owl6oJvt0cA6A79a-240" value="fundingInformation" style="ellipse;whiteSpace=wrap;html=1;align=center;container=0;" vertex="1" parent="1">
          <mxGeometry x="580" y="50" width="100" height="40" as="geometry" />
        </mxCell>
        <mxCell id="plB8owl6oJvt0cA6A79a-241" value="documentationURL" style="ellipse;whiteSpace=wrap;html=1;align=center;container=0;" vertex="1" parent="1">
          <mxGeometry x="320" y="70" width="100" height="40" as="geometry" />
        </mxCell>
        <mxCell id="plB8owl6oJvt0cA6A79a-242" value="abbreviation" style="ellipse;whiteSpace=wrap;html=1;align=center;container=0;" vertex="1" parent="1">
          <mxGeometry x="310" y="120" width="100" height="40" as="geometry" />
        </mxCell>
        <mxCell id="plB8owl6oJvt0cA6A79a-243" value="programName" style="ellipse;whiteSpace=wrap;html=1;align=center;container=0;" vertex="1" parent="1">
          <mxGeometry x="330" y="170" width="100" height="40" as="geometry" />
        </mxCell>
        <mxCell id="plB8owl6oJvt0cA6A79a-244" value="" style="endArrow=none;html=1;rounded=0;" edge="1" parent="1" source="plB8owl6oJvt0cA6A79a-237" target="plB8owl6oJvt0cA6A79a-19">
          <mxGeometry relative="1" as="geometry">
            <mxPoint x="373" y="25" as="sourcePoint" />
            <mxPoint x="387" y="135" as="targetPoint" />
          </mxGeometry>
        </mxCell>
        <mxCell id="plB8owl6oJvt0cA6A79a-245" value="" style="endArrow=none;html=1;rounded=0;" edge="1" parent="1" source="plB8owl6oJvt0cA6A79a-243" target="plB8owl6oJvt0cA6A79a-19">
          <mxGeometry relative="1" as="geometry">
            <mxPoint x="363" y="15" as="sourcePoint" />
            <mxPoint x="465" y="60" as="targetPoint" />
          </mxGeometry>
        </mxCell>
        <mxCell id="plB8owl6oJvt0cA6A79a-246" value="" style="endArrow=none;html=1;rounded=0;" edge="1" parent="1" source="plB8owl6oJvt0cA6A79a-242" target="plB8owl6oJvt0cA6A79a-19">
          <mxGeometry relative="1" as="geometry">
            <mxPoint x="373" y="25" as="sourcePoint" />
            <mxPoint x="475" y="70" as="targetPoint" />
          </mxGeometry>
        </mxCell>
        <mxCell id="plB8owl6oJvt0cA6A79a-247" value="" style="endArrow=none;html=1;rounded=0;" edge="1" parent="1" source="plB8owl6oJvt0cA6A79a-241" target="plB8owl6oJvt0cA6A79a-19">
          <mxGeometry relative="1" as="geometry">
            <mxPoint x="383" y="35" as="sourcePoint" />
            <mxPoint x="485" y="80" as="targetPoint" />
          </mxGeometry>
        </mxCell>
        <mxCell id="plB8owl6oJvt0cA6A79a-248" value="" style="endArrow=none;html=1;rounded=0;" edge="1" parent="1" source="plB8owl6oJvt0cA6A79a-240" target="plB8owl6oJvt0cA6A79a-19">
          <mxGeometry relative="1" as="geometry">
            <mxPoint x="393" y="45" as="sourcePoint" />
            <mxPoint x="495" y="90" as="targetPoint" />
          </mxGeometry>
        </mxCell>
        <mxCell id="plB8owl6oJvt0cA6A79a-249" value="" style="endArrow=none;html=1;rounded=0;" edge="1" parent="1" source="plB8owl6oJvt0cA6A79a-239" target="plB8owl6oJvt0cA6A79a-19">
          <mxGeometry relative="1" as="geometry">
            <mxPoint x="403" y="55" as="sourcePoint" />
            <mxPoint x="505" y="100" as="targetPoint" />
          </mxGeometry>
        </mxCell>
        <mxCell id="plB8owl6oJvt0cA6A79a-250" value="" style="endArrow=none;html=1;rounded=0;" edge="1" parent="1" source="plB8owl6oJvt0cA6A79a-238" target="plB8owl6oJvt0cA6A79a-19">
          <mxGeometry relative="1" as="geometry">
            <mxPoint x="413" y="65" as="sourcePoint" />
            <mxPoint x="515" y="110" as="targetPoint" />
          </mxGeometry>
        </mxCell>
        <mxCell id="plB8owl6oJvt0cA6A79a-264" value="part_of" style="shape=rhombus;perimeter=rhombusPerimeter;whiteSpace=wrap;html=1;align=center;" vertex="1" parent="1">
          <mxGeometry x="500" y="-220" width="120" height="60" as="geometry" />
        </mxCell>
        <mxCell id="plB8owl6oJvt0cA6A79a-267" value="" style="endArrow=none;html=1;rounded=0;dashed=1;dashPattern=1 2;" edge="1" parent="1" source="plB8owl6oJvt0cA6A79a-7" target="plB8owl6oJvt0cA6A79a-264">
          <mxGeometry relative="1" as="geometry">
            <mxPoint x="190" y="90" as="sourcePoint" />
            <mxPoint x="350" y="90" as="targetPoint" />
          </mxGeometry>
        </mxCell>
        <mxCell id="plB8owl6oJvt0cA6A79a-268" value="1" style="resizable=0;html=1;whiteSpace=wrap;align=right;verticalAlign=bottom;" connectable="0" vertex="1" parent="plB8owl6oJvt0cA6A79a-267">
          <mxGeometry x="1" relative="1" as="geometry" />
        </mxCell>
        <mxCell id="plB8owl6oJvt0cA6A79a-269" value="" style="endArrow=none;html=1;rounded=0;" edge="1" parent="1" source="plB8owl6oJvt0cA6A79a-19" target="plB8owl6oJvt0cA6A79a-264">
          <mxGeometry relative="1" as="geometry">
            <mxPoint x="190" y="90" as="sourcePoint" />
            <mxPoint x="350" y="90" as="targetPoint" />
          </mxGeometry>
        </mxCell>
        <mxCell id="plB8owl6oJvt0cA6A79a-270" value="N" style="resizable=0;html=1;whiteSpace=wrap;align=right;verticalAlign=bottom;" connectable="0" vertex="1" parent="plB8owl6oJvt0cA6A79a-269">
          <mxGeometry x="1" relative="1" as="geometry">
            <mxPoint x="-14" y="53" as="offset" />
          </mxGeometry>
        </mxCell>
        <mxCell id="plB8owl6oJvt0cA6A79a-271" value="" style="endArrow=none;html=1;rounded=0;dashed=1;dashPattern=1 2;" edge="1" parent="1" source="plB8owl6oJvt0cA6A79a-7" target="plB8owl6oJvt0cA6A79a-124">
          <mxGeometry relative="1" as="geometry">
            <mxPoint x="190" y="90" as="sourcePoint" />
            <mxPoint x="350" y="90" as="targetPoint" />
          </mxGeometry>
        </mxCell>
        <mxCell id="plB8owl6oJvt0cA6A79a-272" value="1" style="resizable=0;html=1;whiteSpace=wrap;align=right;verticalAlign=bottom;" connectable="0" vertex="1" parent="plB8owl6oJvt0cA6A79a-271">
          <mxGeometry x="1" relative="1" as="geometry">
            <mxPoint x="30" y="-15" as="offset" />
          </mxGeometry>
        </mxCell>
      </root>
    </mxGraphModel>
  </diagram>
</mxfile>
